{"title":"The Hunger Games Mockingjay - Part 1 2014 720p HDCAM NEW SOURCE","uid":11595232,"size":2061200609,"categoryP":"video","categoryS":"movies","magnet":"?xt=urn:btih:ae72a89f896062952f01f4893b1b33ff8bda2f2a&amp;dn=The+Hunger+Games+Mockingjay+-+Part+1+2014+720p+HDCAM+NEW+SOURCE+&amp;tr=udp%3A%2F%2Ftracker.openbittorrent.com%3A80&amp;tr=udp%3A%2F%2Fopen.demonii.com%3A1337&amp;tr=udp%3A%2F%2Ftracker.coppersurfer.tk%3A6969&amp;tr=udp%3A%2F%2Fexodus.desync.com%3A6969","seeders":35,"leechers":1,"uploader":"shawnmurthy","files":-1,"time":1417275504,"description":"The Hunger Games Mockingjay - Part 1 2014 720p HDCAM NEW SOURCE x264 Pimp4003\n &lt;a href=&quot;\nhttp://www.imdb.com/title/tt1951265/&quot; rel=&quot;nofollow&quot; target=&quot;_NEW&quot;&gt;\nhttp://www.imdb.com/title/tt1951265/&lt;/a&gt;\n\nWhen Katniss destroys the games, she goes to District 13 after District 12 is destroyed. She meets President Coin who convinces her to be the symbol of rebellion, while trying to save Peeta from the Capitol.\n\nDirector: Francis Lawrence\nWriters: Peter Craig (screenplay), Danny Strong (screenplay), 2 more credits Â»\nStars: Jennifer Lawrence, Josh Hutcherson, Liam Hemsworth | See full cast and crew Â»\n\nENJOY\n\nPIMP4003\n\nVideo\nID                                       : 1\nFormat                                   : MPEG-4 Visual\nFormat profile                           : Simple@L3\nFormat settings, BVOP                    : No\nFormat settings, QPel                    : No\nFormat settings, GMC                     : No warppoints\nFormat settings, Matrix                  : Default (H.263)\nCodec ID                                 : 20\nDuration                                 : 1h 50mn\nBit rate                                 : 2 346 Kbps\nWidth                                    : 1 280 pixels\nHeight                                   : 536 pixels\nDisplay aspect ratio                     : 2.40:1\nFrame rate mode                          : Variable\nFrame rate                               : 59.940 fps\nMinimum frame rate                       : 59.916 fps\nMaximum frame rate                       : 60.157 fps\nColor space                              : YUV\nChroma subsampling                       : 4:2:0\nBit depth                                : 8 bits\nScan type                                : Progressive\nCompression mode                         : Lossy\nBits/(Pixel*Frame)                       : 0.057\nStream size                              : 1.81 GiB (94%)\nWriting library                          : ZJMedia MPEG Encoder\n\nAudio\nID                                       : 2\nFormat                                   : AAC\nFormat/Info                              : Advanced Audio Codec\nFormat profile                           : LC\nCodec ID                                 : 40\nDuration                                 : 1h 50mn\nBit rate mode                            : Variable\nBit rate                                 : 128 Kbps\nChannel(s)                               : 2 channels\nChannel positions                        : Front: L R\nSampling rate                            : 48.0 KHz\nCompression mode                         : Lossy\nStream size                              : 101 MiB (5%)\n &lt;a href=&quot;\nhttp://i.imgur.com/qIqa0Sb.png&quot; rel=&quot;nofollow&quot; target=&quot;_NEW&quot;&gt;\nhttp://i.imgur.com/qIqa0Sb.png&lt;/a&gt; &lt;a href=&quot;\nhttp://i.imgur.com/I88vhpR.png&quot; rel=&quot;nofollow&quot; target=&quot;_NEW&quot;&gt;\nhttp://i.imgur.com/I88vhpR.png&lt;/a&gt; &lt;a href=&quot;\nhttp://i.imgur.com/qOaOgVw.png&quot; rel=&quot;nofollow&quot; target=&quot;_NEW&quot;&gt;\nhttp://i.imgur.com/qOaOgVw.png&lt;/a&gt;","torrent":{"xt":"urn:btih:ae72a89f896062952f01f4893b1b33ff8bda2f2a","amp;dn":"The+Hunger+Games+Mockingjay+-+Part+1+2014+720p+HDCAM+NEW+SOURCE+","amp;tr":["udp%3A%2F%2Ftracker.openbittorrent.com%3A80","udp%3A%2F%2Fopen.demonii.com%3A1337","udp%3A%2F%2Ftracker.coppersurfer.tk%3A6969","udp%3A%2F%2Fexodus.desync.com%3A6969"],"infoHash":"ae72a89f896062952f01f4893b1b33ff8bda2f2a","infoHashBuffer":{"type":"Buffer","data":[174,114,168,159,137,96,98,149,47,1,244,137,59,27,51,255,139,218,47,42]},"announce":[],"urlList":[]}}